<svg xmlns="http://www.w3.org/2000/svg" viewBox="0 0 512 512"><path d="M459.4 151.7c.3 4.2.3 8.5.3 12.8 0 130.6-99.4 281.3-281.3 281.3-56 0-108.1-16.4-152-44.8 7.9.9 15.8 1.4 24 1.4 46.6 0 89.4-15.8 123.6-42.5-43.6-.9-80.3-29.5-92.9-69 6.1.9 12.1 1.4 18.6 1.4 8.9 0 17.7-1.2 25.9-3.3-45.6-9.1-79.8-49.4-79.8-97.5v-1.2c13.5 7.5 29.1 12 45.6 12.5-27.1-18.1-45-48.9-45-83.8 0-18.3 4.8-35.4 13.2-50.1 48 59.3 119.7 98.1 200.3 102.3-1.7-7.5-2.6-15.3-2.6-23.1 0-56.1 45.6-101.7 101.7-101.7 29.3 0 55.8 12.3 74.4 32 23.1-4.5 44.6-13 64-24.3-7.5 23.4-23.1 43.1-43.6 55.4 20.5-2.3 40.3-7.9 58.6-15.8-13.5 20.2-30.4 38.1-50 52.4z"></path></svg>
