<?xml version="1.0" encoding="utf-8"?>
<!-- Generator: Adobe Illustrator 26.3.1, SVG Export Plug-In . SVG Version: 6.00 Build 0)  -->
<svg version="1.1" id="Layer_1" xmlns="http://www.w3.org/2000/svg" xmlns:xlink="http://www.w3.org/1999/xlink" x="0px" y="0px"
	 width="650px" height="279.8px" viewBox="0 0 650 279.8" enable-background="new 0 0 650 279.8" xml:space="preserve">
<g>
	<linearGradient id="SVGID_1_" gradientUnits="userSpaceOnUse" x1="6.5182" y1="63.5576" x2="599.5182" y2="301.5576">
		<stop  offset="0" style="stop-color:#2BFF46"/>
		<stop  offset="1" style="stop-color:#00B1FF"/>
	</linearGradient>
	<circle fill="url(#SVGID_1_)" cx="532.6" cy="274.7" r="4.1"/>
	
		<linearGradient id="SVGID_00000152238311571005919890000005220789308940147855_" gradientUnits="userSpaceOnUse" x1="13.2871" y1="46.6921" x2="606.2872" y2="284.6921">
		<stop  offset="0" style="stop-color:#2BFF46"/>
		<stop  offset="1" style="stop-color:#00B1FF"/>
	</linearGradient>
	<path fill="url(#SVGID_00000152238311571005919890000005220789308940147855_)" d="M560.7,259.9c-0.1-1.1-0.5-2.1-1.1-3
		c-0.9-1.2-2.2-1.8-4-1.8c-2.6,0-4.4,1.3-5.3,3.9c-0.5,1.4-0.8,3.2-0.8,5.5c0,2.2,0.3,3.9,0.8,5.2c0.9,2.5,2.7,3.7,5.2,3.7
		c1.8,0,3.1-0.5,3.9-1.5c0.8-1,1.2-2.2,1.4-3.8h7.9c-0.2,2.3-1,4.6-2.5,6.7c-2.4,3.4-6,5.1-10.8,5.1s-8.3-1.4-10.5-4.2
		s-3.4-6.5-3.4-11c0-5.1,1.2-9,3.7-11.8s5.9-4.2,10.2-4.2c3.7,0,6.7,0.8,9.1,2.5c2.4,1.7,3.8,4.6,4.2,8.8h-8V259.9z"/>
	
		<linearGradient id="SVGID_00000138572406173573483770000011344568053449213080_" gradientUnits="userSpaceOnUse" x1="17.7798" y1="35.4982" x2="610.7798" y2="273.4982">
		<stop  offset="0" style="stop-color:#2BFF46"/>
		<stop  offset="1" style="stop-color:#00B1FF"/>
	</linearGradient>
	<path fill="url(#SVGID_00000138572406173573483770000011344568053449213080_)" d="M598.6,275.2c-2.5,3.1-6.3,4.6-11.3,4.6
		s-8.9-1.5-11.3-4.6c-2.5-3.1-3.7-6.8-3.7-11.1c0-4.3,1.2-7.9,3.7-11.1c2.5-3.1,6.3-4.7,11.3-4.7s8.9,1.6,11.3,4.7
		c2.5,3.1,3.7,6.8,3.7,11.1C602.3,268.4,601,272.1,598.6,275.2z M592.4,270.9c1.2-1.6,1.8-3.9,1.8-6.8c0-3-0.6-5.2-1.8-6.8
		c-1.2-1.6-2.9-2.4-5.2-2.4s-4,0.8-5.2,2.4c-1.2,1.6-1.8,3.9-1.8,6.8c0,3,0.6,5.2,1.8,6.8c1.2,1.6,3,2.4,5.2,2.4
		S591.2,272.5,592.4,270.9z"/>
	
		<linearGradient id="SVGID_00000132057359404956188100000016277475698437829553_" gradientUnits="userSpaceOnUse" x1="23.1818" y1="22.0387" x2="616.1818" y2="260.0387">
		<stop  offset="0" style="stop-color:#2BFF46"/>
		<stop  offset="1" style="stop-color:#00B1FF"/>
	</linearGradient>
	<path fill="url(#SVGID_00000132057359404956188100000016277475698437829553_)" d="M644.7,249.4c1.3,0.5,2.4,1.4,3.4,2.7
		c0.8,1,1.4,2.3,1.7,3.8c0.2,1,0.3,2.4,0.3,4.4l-0.1,18.6h-7.9V260c0-1.1-0.2-2-0.5-2.8c-0.7-1.4-2-2.1-3.8-2.1
		c-2.1,0-3.6,0.9-4.4,2.7c-0.4,0.9-0.6,2.1-0.6,3.4v17.6H625v-17.6c0-1.8-0.2-3-0.5-3.8c-0.6-1.4-1.9-2.1-3.8-2.1
		c-2.2,0-3.7,0.7-4.4,2.1c-0.4,0.8-0.6,2-0.6,3.6v17.8h-7.8v-29.5h7.5v4.3c1-1.5,1.9-2.6,2.7-3.3c1.5-1.2,3.4-1.7,5.8-1.7
		c2.3,0,4.1,0.5,5.5,1.5c1.1,0.9,2,2.1,2.5,3.5c1-1.7,2.3-3,3.8-3.8c1.6-0.8,3.4-1.2,5.3-1.2C642.1,248.6,643.4,248.9,644.7,249.4z"
		/>
	
		<linearGradient id="SVGID_00000088826193686464290960000017616046117714406796_" gradientUnits="userSpaceOnUse" x1="25.9921" y1="15.0364" x2="618.9921" y2="253.0364">
		<stop  offset="0" style="stop-color:#2BFF46"/>
		<stop  offset="1" style="stop-color:#00B1FF"/>
	</linearGradient>
	<path fill="url(#SVGID_00000088826193686464290960000017616046117714406796_)" d="M532.6,265.4c1.3,0,2.6,0.3,3.7,0.8
		c0-0.5-0.1-1-0.1-1.6c0-6.3,1.7-11.4,5-15.2c3.4-3.9,8.3-6,14.1-6c4.8,0,8.8,1.2,12.1,3.4c2.3,1.6,4,3.9,5.1,6.8
		c2.5-5,3.8-10.7,3.8-16.9c0-8.9-3.1-16.4-9.2-22.3c-6.2-5.9-15.4-10.3-27.8-13.2c-18.6-4.1-29.4-6.9-32.4-8.6
		c-3.1-1.6-4.6-4.2-4.6-7.7c0-2.8,1.4-5.3,4.3-7.4c2.9-2.1,7.7-3.2,14.5-3.2c8.2,0,14.1,2.1,17.5,6.3c1.8,2.3,2.9,5.5,3.4,9.5h31
		c-1.4-14.5-6.8-24.7-16.1-30.7c-9.4-5.9-21.5-8.9-36.3-8.9c-15.6,0-27.8,3.9-36.4,11.8c-8.6,7.9-12.9,17.3-12.9,28.3
		c0,9.3,2.8,16.4,8.3,21.4s15,9.2,28.5,12.5c18.7,4.4,29.6,7.6,32.5,9.4c2.9,1.8,4.4,4.5,4.4,8c0,3.6-1.8,6.4-5.4,8.2
		c-3.6,1.8-8.5,2.7-14.6,2.7c-10.4,0-17.6-2.1-21.5-6.2c-2.2-2.3-3.6-6.2-4.3-11.8h-31.5c0,12.2,4.5,22.2,13.4,30.1
		s22.7,11.8,41.4,11.8c0.4,0,0.8,0,1.2,0c-0.2-0.7-0.2-1.3-0.2-2.1C523.4,269.6,527.5,265.4,532.6,265.4z"/>
	
		<linearGradient id="SVGID_00000043452530656859617900000006649021291541365419_" gradientUnits="userSpaceOnUse" x1="14.4258" y1="43.855" x2="607.4258" y2="281.855">
		<stop  offset="0" style="stop-color:#2BFF46"/>
		<stop  offset="1" style="stop-color:#00B1FF"/>
	</linearGradient>
	<path fill="url(#SVGID_00000043452530656859617900000006649021291541365419_)" d="M468,151.4c-1.4-0.1-2.3-0.1-2.7-0.2
		c-0.4,0-0.9-0.1-1.5-0.1c-9.3,0-16.9,2.4-22.7,7.3c-3.6,2.9-7.7,8.3-12.5,16.2V154H399v118.7h31.3V216c0-9.5,1.2-16.6,3.6-21.1
		c4.3-8.1,12.7-12.2,25.2-12.2c0.9,0,2.2,0,3.7,0.1s3.3,0.2,5.2,0.4V151.4z"/>
	
		<linearGradient id="SVGID_00000028301162151957252120000000253317923883452333_" gradientUnits="userSpaceOnUse" x1="0.7918" y1="77.8255" x2="593.7918" y2="315.8255">
		<stop  offset="0" style="stop-color:#2BFF46"/>
		<stop  offset="1" style="stop-color:#00B1FF"/>
	</linearGradient>
	<path fill="url(#SVGID_00000028301162151957252120000000253317923883452333_)" d="M348.9,218.6c0,7.6-1,13.8-3,18.4
		c-3.9,8.6-11.1,12.9-21.7,12.9c-8.2,0-13.8-3-16.6-9c-1.6-3.4-2.4-8.5-2.4-15.3V154h-31.8v71.6c0,13.6,1.7,23.9,5.1,30.8
		c6.1,12.6,17.9,19,35.4,19c6.1,0,11.4-0.8,15.9-2.4s9.2-4.6,14.1-8.9c1.6-1.4,3-3,4.1-4.8c1.2-1.8,1.9-2.9,2.2-3.3v16.8h30.2V154
		h-31.5L348.9,218.6L348.9,218.6z"/>
	
		<linearGradient id="SVGID_00000161620469302711897570000017082351968043838341_" gradientUnits="userSpaceOnUse" x1="-18.1334" y1="124.9793" x2="574.8666" y2="362.9793">
		<stop  offset="0" style="stop-color:#2BFF46"/>
		<stop  offset="1" style="stop-color:#00B1FF"/>
	</linearGradient>
	<path fill="url(#SVGID_00000161620469302711897570000017082351968043838341_)" d="M202.5,150.2c-20.4,0-35.6,6.3-45.6,18.8
		c-10,12.6-15,27.4-15,44.5c0,17.4,5,32.3,15,44.7c10,12.4,25.2,18.6,45.6,18.6s35.6-6.2,45.6-18.6s15-27.3,15-44.7
		c0-17.1-5-32-15-44.5C238.1,156.5,222.9,150.2,202.5,150.2z M223.3,241.1c-4.9,6.5-11.8,9.7-20.9,9.7c-9.1,0-16.1-3.2-21-9.7
		s-7.4-15.6-7.4-27.5s2.5-21.1,7.4-27.5s11.9-9.6,21-9.6s16.1,3.2,20.9,9.6c4.9,6.4,7.3,15.6,7.3,27.5
		C230.6,225.4,228.2,234.6,223.3,241.1z"/>
	
		<linearGradient id="SVGID_00000098930824867127200140000003973123491768798605_" gradientUnits="userSpaceOnUse" x1="-25.1855" y1="142.5503" x2="567.8146" y2="380.5503">
		<stop  offset="0" style="stop-color:#2BFF46"/>
		<stop  offset="1" style="stop-color:#00B1FF"/>
	</linearGradient>
	<path fill="url(#SVGID_00000098930824867127200140000003973123491768798605_)" d="M121.1,123.8c-3.2,5.4-7.2,10.4-11.8,14.7
		c-5.5,5.1-11.8,9-18.9,11.7v4.8H73.8v22.1h16.6v73.1c0,7.4,1.7,12.9,5.2,16.5c5.4,5.6,15.4,8.1,30.1,7.6l14.7-0.5v-23.2
		c-1,0.1-2.1,0.1-3.1,0.2c-1.1,0-2.1,0.1-3,0.1c-6.3,0-10.1-0.6-11.3-1.8c-1.2-1.2-1.9-4.2-1.9-9.1v-62.8h19.3v-22.1h-19.3
		L121.1,123.8L121.1,123.8z"/>
	
		<linearGradient id="SVGID_00000049197772239575949540000013305334691470146994_" gradientUnits="userSpaceOnUse" x1="77.6773" y1="-113.7422" x2="670.6773" y2="124.2578">
		<stop  offset="0" style="stop-color:#2BFF46"/>
		<stop  offset="1" style="stop-color:#00B1FF"/>
	</linearGradient>
	<path fill="url(#SVGID_00000049197772239575949540000013305334691470146994_)" d="M639.7,46c6.9,5.7,10.4,15.2,10.4,28.4v71.1
		h-28.3V81.2c0-5.6-0.7-9.8-2.2-12.8c-2.7-5.4-7.8-8.1-15.4-8.1c-9.3,0-15.7,4-19.1,11.9c-1.8,4.2-2.7,9.6-2.7,16.1v57.1h-27.6V40.1
		h26.7v15.4c3.5-5.4,6.9-9.3,10-11.7c5.7-4.3,12.8-6.4,21.5-6.4C623.9,37.4,632.8,40.2,639.7,46z"/>
	
		<linearGradient id="SVGID_00000076568931083125226550000004848503768606749100_" gradientUnits="userSpaceOnUse" x1="65.8025" y1="-84.1548" x2="658.8024" y2="153.8452">
		<stop  offset="0" style="stop-color:#2BFF46"/>
		<stop  offset="1" style="stop-color:#00B1FF"/>
	</linearGradient>
	<path fill="url(#SVGID_00000076568931083125226550000004848503768606749100_)" d="M476.8,39.9v63.6c0,6,0.7,10.5,2.1,13.6
		c2.5,5.4,7.4,8,14.7,8c9.4,0,15.8-3.8,19.3-11.4c1.8-4.1,2.7-9.6,2.7-16.4V39.9h28v105.6h-26.8v-14.9c-0.3,0.3-0.9,1.3-1.9,2.9
		c-1,1.6-2.3,3-3.7,4.3c-4.3,3.9-8.5,6.5-12.5,7.9s-8.7,2.1-14.1,2.1c-15.6,0-26.1-5.6-31.5-16.9c-3-6.2-4.5-15.3-4.5-27.4V39.9
		H476.8z"/>
	
		<linearGradient id="SVGID_00000152976932700590935490000013210478111232927924_" gradientUnits="userSpaceOnUse" x1="49.9301" y1="-44.6074" x2="642.9301" y2="193.3926">
		<stop  offset="0" style="stop-color:#2BFF46"/>
		<stop  offset="1" style="stop-color:#00B1FF"/>
	</linearGradient>
	<path fill="url(#SVGID_00000152976932700590935490000013210478111232927924_)" d="M412,77.8c-0.5-3.9-1.8-7.5-4-10.7
		c-3.1-4.3-7.9-6.4-14.5-6.4c-9.3,0-15.7,4.6-19.1,13.8c-1.8,4.9-2.7,11.4-2.7,19.5c0,7.7,0.9,13.9,2.7,18.6
		c3.3,8.8,9.5,13.2,18.6,13.2c6.5,0,11.1-1.7,13.8-5.2s4.4-8,5-13.6H440c-0.6,8.4-3.7,16.3-9.1,23.8c-8.7,12.1-21.5,18.1-38.5,18.1
		s-29.5-5-37.5-15.1s-12-23.1-12-39.2c0-18.1,4.4-32.2,13.3-42.3s21.1-15.1,36.6-15.1c13.2,0,24.1,3,32.5,8.9s13.4,16.4,15,31.5H412
		V77.8z"/>
	
		<linearGradient id="SVGID_00000116939739722256089180000001715050040552680323_" gradientUnits="userSpaceOnUse" x1="33.7126" y1="-4.1999" x2="626.7126" y2="233.8001">
		<stop  offset="0" style="stop-color:#2BFF46"/>
		<stop  offset="1" style="stop-color:#00B1FF"/>
	</linearGradient>
	<path fill="url(#SVGID_00000116939739722256089180000001715050040552680323_)" d="M322.8,46c6.9,5.7,10.4,15.2,10.4,28.4v71.1
		h-28.3V81.2c0-5.6-0.7-9.8-2.2-12.8c-2.7-5.4-7.8-8.1-15.4-8.1c-9.3,0-15.7,4-19.1,11.9c-1.8,4.2-2.7,9.6-2.7,16.1v57.1h-27.6V40.1
		h26.7v15.4c3.5-5.4,6.9-9.3,10-11.7c5.7-4.3,12.8-6.4,21.5-6.4C307,37.4,315.9,40.2,322.8,46z"/>
	
		<linearGradient id="SVGID_00000176731536861882248120000007374969885009787033_" gradientUnits="userSpaceOnUse" x1="19.6061" y1="30.9478" x2="612.6061" y2="268.9478">
		<stop  offset="0" style="stop-color:#2BFF46"/>
		<stop  offset="1" style="stop-color:#00B1FF"/>
	</linearGradient>
	<path fill="url(#SVGID_00000176731536861882248120000007374969885009787033_)" d="M179.1,81.2c5.1-0.6,8.8-1.5,11-2.4
		c4-1.7,6-4.3,6-7.8c0-4.3-1.5-7.3-4.6-9c-3-1.6-7.5-2.5-13.4-2.5c-6.6,0-11.3,1.6-14,4.8c-2,2.4-3.3,5.6-3.9,9.7h-26.6
		c0.6-9.2,3.2-16.8,7.8-22.8c7.3-9.3,19.9-13.9,37.7-13.9c11.6,0,21.9,2.3,30.9,6.9s13.5,13.2,13.5,26v48.4c0,3.4,0.1,7.4,0.2,12.2
		c0.2,3.6,0.7,6.1,1.6,7.4c0.9,1.3,2.3,2.4,4.1,3.2v4.1h-30c-0.8-2.1-1.4-4.1-1.7-6s-0.6-4-0.8-6.4c-3.8,4.1-8.2,7.7-13.2,10.6
		c-6,3.4-12.7,5.1-20.3,5.1c-9.6,0-17.5-2.7-23.8-8.2s-9.4-13.2-9.4-23.2c0-13,5-22.4,15.1-28.2c5.5-3.2,13.7-5.4,24.4-6.8
		L179.1,81.2z M196,94.1c-1.8,1.1-3.6,2-5.4,2.7c-1.8,0.7-4.3,1.3-7.4,1.9l-6.3,1.2c-5.9,1-10.1,2.3-12.7,3.8
		c-4.3,2.5-6.5,6.4-6.5,11.7c0,4.7,1.3,8.1,4,10.2s5.9,3.1,9.7,3.1c6,0,11.6-1.7,16.7-5.2c5.1-3.5,7.7-9.8,7.9-19.1V94.1z"/>
	
		<linearGradient id="SVGID_00000059308121888026047890000008394888568998440103_" gradientUnits="userSpaceOnUse" x1="10.8306" y1="52.8128" x2="603.8306" y2="290.8128">
		<stop  offset="0" style="stop-color:#2BFF46"/>
		<stop  offset="1" style="stop-color:#00B1FF"/>
	</linearGradient>
	<path fill="url(#SVGID_00000059308121888026047890000008394888568998440103_)" d="M19.8,17.6C31.3,5.9,46,0,63.7,0
		c23.8,0,41.1,7.9,52.1,23.6c6.1,8.8,9.3,17.7,9.8,26.6H95.8c-1.9-6.8-4.3-12-7.3-15.5c-5.3-6.2-13.2-9.3-23.6-9.3
		c-10.6,0-19,4.4-25.1,13.1s-9.2,21.1-9.2,37.1s3.2,28,9.7,36s14.7,12,24.7,12c10.2,0,18-3.4,23.4-10.3c3-3.7,5.4-9.2,7.4-16.6h29.6
		c-2.6,15.6-9.1,28.2-19.6,38c-10.5,9.7-24,14.6-40.4,14.6c-20.3,0-36.3-6.6-47.9-19.8C5.8,116.4,0,98.3,0,75.2
		C0,50.3,6.6,31.1,19.8,17.6z"/>
</g>
</svg>
